<svg xmlns="http://www.w3.org/2000/svg" width="1209.015" height="666.235" viewBox="0 0 1209.015 666.235">
  <g id="Group_552" data-name="Group 552" transform="translate(-32.43 -37.667)">
    <g id="text" transform="translate(1005.254 614.993)" opacity="0.25">
      <path id="Path_10286" data-name="Path 10286" d="M637.635,1459H607.1a7.1,7.1,0,0,0-7.1,7.1v16.27a7.1,7.1,0,0,0,7.1,7.1h4.514a.865.865,0,0,1,.864.864v9.267a.865.865,0,0,0,1.475.611l10.482-10.489a.856.856,0,0,1,.611-.253h12.582a7.1,7.1,0,0,0,7.1-7.1V1466.1A7.087,7.087,0,0,0,637.635,1459Z" transform="translate(-600 -1459)" fill="none" stroke="#78868b" stroke-linecap="round" stroke-linejoin="round" stroke-miterlimit="10" stroke-width="2"/>
      <path id="Path_10287" data-name="Path 10287" d="M945.594,1626.8a6.042,6.042,0,0,1,2.667,5.014v12.776a6.049,6.049,0,0,1-6.049,6.049h-3.837a.734.734,0,0,0-.738.738v7.889a.738.738,0,0,1-1.259.521l-8.932-8.932a.732.732,0,0,0-.521-.216H921.1" transform="translate(-897.179 -1614.3)" fill="none" stroke="#78868b" stroke-linecap="round" stroke-linejoin="round" stroke-miterlimit="10" stroke-width="2"/>
      <line id="Line_50" data-name="Line 50" x2="14.303" transform="translate(15.212 14.787)" fill="none" stroke="#78868b" stroke-linecap="round" stroke-linejoin="round" stroke-miterlimit="10" stroke-width="2" stroke-dasharray="4.742 56.901"/>
    </g>
    <g id="tttt" transform="translate(72.539 579.212)" opacity="0.25">
      <path id="Path_10244" data-name="Path 10244" d="M1645.516,2883.392H1637.5V2867.8h8.016v3.293" transform="translate(-1637.5 -2832.31)" fill="none" stroke="#78868b" stroke-linecap="round" stroke-linejoin="round" stroke-miterlimit="10" stroke-width="2"/>
      <path id="Path_10245" data-name="Path 10245" d="M1832.216,2836.006H1824.2V2816.6h8.016v3.308" transform="translate(-1810.292 -2784.924)" fill="none" stroke="#78868b" stroke-linecap="round" stroke-linejoin="round" stroke-miterlimit="10" stroke-width="2"/>
      <path id="Path_10246" data-name="Path 10246" d="M2019.016,2687.555H2011V2656.2h8.016v3.039" transform="translate(-1983.176 -2636.473)" fill="none" stroke="#78868b" stroke-linecap="round" stroke-linejoin="round" stroke-miterlimit="10" stroke-width="2"/>
      <path id="Path_10247" data-name="Path 10247" d="M2205.816,2535.773H2197.8V2492.2h8.016v3.01" transform="translate(-2156.06 -2484.691)" fill="none" stroke="#78868b" stroke-linecap="round" stroke-linejoin="round" stroke-miterlimit="10" stroke-width="2"/>
      <path id="Path_10248" data-name="Path 10248" d="M1745.1,2960.491V2955" transform="translate(-1737.084 -2913.014)" fill="none" stroke="#78868b" stroke-linecap="round" stroke-linejoin="round" stroke-miterlimit="10" stroke-width="2" stroke-dasharray="5.741 48.47"/>
      <path id="Path_10249" data-name="Path 10249" d="M1931.8,2904.219V2894.2" transform="translate(-1909.876 -2856.743)" fill="none" stroke="#78868b" stroke-linecap="round" stroke-linejoin="round" stroke-miterlimit="10" stroke-width="2" stroke-dasharray="5.741 48.47"/>
      <path id="Path_10250" data-name="Path 10250" d="M2118.6,2755.676V2733.7" transform="translate(-2082.76 -2708.2)" fill="none" stroke="#78868b" stroke-linecap="round" stroke-linejoin="round" stroke-miterlimit="10" stroke-width="2" stroke-dasharray="5.741 48.47"/>
      <path id="Path_10251" data-name="Path 10251" d="M2305.4,2594.917V2560" transform="translate(-2255.644 -2547.44)" fill="none" stroke="#78868b" stroke-linecap="round" stroke-linejoin="round" stroke-miterlimit="10" stroke-width="2" stroke-dasharray="5.741 48.47"/>
      <path id="Path_10252" data-name="Path 10252" d="M1839.852,2407.7v-5.155h6.28l-10.966-11.145-10.966,11.145h6.28V2419.8" transform="translate(-1810.292 -2391.4)" fill="none" stroke="#78868b" stroke-linecap="round" stroke-linejoin="round" stroke-miterlimit="10" stroke-width="2"/>
      <path id="Path_10253" data-name="Path 10253" d="M1703.584,2615.721v-5.93h3.889l-6.787-6.891-6.787,6.891h3.881v9.357" transform="translate(-1689.698 -2587.144)" fill="none" stroke="#78868b" stroke-linecap="round" stroke-linejoin="round" stroke-miterlimit="10" stroke-width="2"/>
    </g>
    <g id="mail" transform="translate(272.386 652.118)" opacity="0.25">
      <path id="Path_10288" data-name="Path 10288" d="M4738.965,471.822c-.193.06-.388.119-.589.179a18.828,18.828,0,1,1,12.858-23.317c.06.194.111.395.164.589" transform="translate(-4714.315 -434.753)" fill="none" stroke="#78868b" stroke-linecap="round" stroke-linejoin="round" stroke-miterlimit="10" stroke-width="2"/>
      <path id="Path_10289" data-name="Path 10289" d="M4996.9,474.4c3.449,2.592,6.512,7.211,8.158,12.9" transform="translate(-4975.848 -471.145)" fill="none" stroke="#78868b" stroke-linecap="round" stroke-linejoin="round" stroke-miterlimit="10" stroke-width="2"/>
      <path id="Path_10290" data-name="Path 10290" d="M4821.431,551.431c-3.53-2.563-6.689-7.248-8.365-13.059-1.646-5.691-1.52-11.234.014-15.272" transform="translate(-4804.611 -516.217)" fill="none" stroke="#78868b" stroke-linecap="round" stroke-linejoin="round" stroke-miterlimit="10" stroke-width="2"/>
      <line id="Line_51" data-name="Line 51" x2="9.089" y2="31.437" transform="translate(14.287 3.442)" fill="none" stroke="#78868b" stroke-linecap="round" stroke-linejoin="round" stroke-miterlimit="10" stroke-width="2"/>
      <line id="Line_52" data-name="Line 52" y1="9.089" x2="31.437" transform="translate(3.113 14.616)" fill="none" stroke="#78868b" stroke-linecap="round" stroke-linejoin="round" stroke-miterlimit="10" stroke-width="2"/>
      <line id="Line_53" data-name="Line 53" y1="6.854" x2="23.697" transform="translate(3.984 5.356)" fill="none" stroke="#78868b" stroke-linecap="round" stroke-linejoin="round" stroke-miterlimit="10" stroke-width="2"/>
      <line id="Line_54" data-name="Line 54" y1="3.427" x2="11.852" transform="translate(9.981 29.538)" fill="none" stroke="#78868b" stroke-linecap="round" stroke-linejoin="round" stroke-miterlimit="10" stroke-width="2"/>
      <path id="Path_10291" data-name="Path 10291" d="M5094.5,703.422l8.977,3.717a1.256,1.256,0,0,0,1.475-.417l5.692-7.822" transform="translate(-5066.177 -678.92)" fill="none" stroke="#78868b" stroke-linecap="round" stroke-linejoin="round" stroke-miterlimit="10" stroke-width="2"/>
      <path id="Path_10292" data-name="Path 10292" d="M5054.841,636.329l2.206-.633a2.341,2.341,0,0,1,2.89,1.609l3.375,11.837a2.342,2.342,0,0,1-1.609,2.89l-19.041,5.431a2.341,2.341,0,0,1-2.89-1.609l-3.375-11.837a2.342,2.342,0,0,1,1.609-2.89l2.5-.715Z" transform="translate(-5012.32 -620.343)" fill="none" stroke="#78868b" stroke-linecap="round" stroke-linejoin="round" stroke-miterlimit="10" stroke-width="2"/>
      <line id="Line_55" data-name="Line 55" x1="2.116" y2="2.987" transform="translate(30.684 29.567)" fill="none" stroke="#78868b" stroke-linecap="round" stroke-linejoin="round" stroke-miterlimit="10" stroke-width="2"/>
      <line id="Line_56" data-name="Line 56" x2="3.367" y2="1.423" transform="translate(43.318 26.565)" fill="none" stroke="#78868b" stroke-linecap="round" stroke-linejoin="round" stroke-miterlimit="10" stroke-width="2"/>
      <line id="Line_57" data-name="Line 57" y1="0.507" x2="0.507" transform="translate(44.6 10.213)" fill="none" stroke="#78868b" stroke-linecap="round" stroke-linejoin="round" stroke-miterlimit="10" stroke-width="2"/>
      <line id="Line_58" data-name="Line 58" y1="0.507" x2="0.507" transform="translate(47.349 7.464)" fill="none" stroke="#78868b" stroke-linecap="round" stroke-linejoin="round" stroke-miterlimit="10" stroke-width="2"/>
      <line id="Line_59" data-name="Line 59" x1="0.507" y1="0.507" transform="translate(47.349 10.213)" fill="none" stroke="#78868b" stroke-linecap="round" stroke-linejoin="round" stroke-miterlimit="10" stroke-width="2"/>
      <line id="Line_60" data-name="Line 60" x1="0.507" y1="0.507" transform="translate(44.6 7.464)" fill="none" stroke="#78868b" stroke-linecap="round" stroke-linejoin="round" stroke-miterlimit="10" stroke-width="2"/>
      <line id="Line_61" data-name="Line 61" x1="0.156" y1="0.156" transform="translate(37.776 0)" fill="none" stroke="#78868b" stroke-linecap="round" stroke-linejoin="round" stroke-miterlimit="10" stroke-width="2"/>
      <line id="Line_62" data-name="Line 62" x1="0.156" y1="0.164" transform="translate(40.056 2.272)" fill="none" stroke="#78868b" stroke-linecap="round" stroke-linejoin="round" stroke-miterlimit="10" stroke-width="2"/>
      <line id="Line_63" data-name="Line 63" x1="0.156" y2="0.164" transform="translate(37.776 2.272)" fill="none" stroke="#78868b" stroke-linecap="round" stroke-linejoin="round" stroke-miterlimit="10" stroke-width="2"/>
      <line id="Line_64" data-name="Line 64" x1="0.156" y2="0.156" transform="translate(40.056 0)" fill="none" stroke="#78868b" stroke-linecap="round" stroke-linejoin="round" stroke-miterlimit="10" stroke-width="2"/>
    </g>
    <g id="pie" transform="translate(-54.207 371.483)" opacity="0.25">
      <path id="Path_10331" data-name="Path 10331" d="M233.8,77.3s7.819,2.606,9.087,4.226c2.747,3.522,2.395,11.2,1.761,15.426a22.792,22.792,0,0,0,.564,7.819" transform="translate(-18.868 -7.538)" fill="none" stroke="#78868b" stroke-linecap="round" stroke-linejoin="round" stroke-miterlimit="10" stroke-width="2"/>
      <path id="Path_10332" data-name="Path 10332" d="M232.387,83.387c-1.831-2.818-3.8-3.029-5.212-4.931-2.677-3.592-2.395-3.311-4.931-6.621-1.479-1.972-2.465-3.1-4.438-2.254-1.62.775-1.62,2.043-1.127,3.733.564,2.113,4.367,9.016,5.142,10.636a2.92,2.92,0,0,1,.211,1.127c-.141,2.043-.564,7.96,7.044,11.411" transform="translate(-13.722 -5.172)" fill="none" stroke="#78868b" stroke-linecap="round" stroke-linejoin="round" stroke-miterlimit="10" stroke-width="2"/>
      <path id="Path_10333" data-name="Path 10333" d="M219.7,96.4c0,7.255,6.34,8.8,7.4,13.947" transform="translate(-14.7 -13.184)" fill="none" stroke="#78868b" stroke-linecap="round" stroke-linejoin="round" stroke-miterlimit="10" stroke-width="2"/>
      <path id="Path_10334" data-name="Path 10334" d="M216.849,61.591a17.892,17.892,0,0,0-4.86-5.987,17.445,17.445,0,0,0-10.707-3.8L201,69.41l10.848,5.565" transform="translate(-9.173)" fill="none" stroke="#78868b" stroke-linecap="round" stroke-linejoin="round" stroke-miterlimit="10" stroke-width="2"/>
      <path id="Path_10335" data-name="Path 10335" d="M187.6,73.309l.282-17.61a17.649,17.649,0,1,0,13.595,28.6,16.284,16.284,0,0,0,1.9-2.958Z" transform="translate(0 -1.152)" fill="none" stroke="#78868b" stroke-linecap="round" stroke-linejoin="round" stroke-miterlimit="10" stroke-width="2"/>
      <path id="Path_10336" data-name="Path 10336" d="M174.9,91.125,189.058,80.7l4.86,16.976" transform="translate(-1.457 -8.543)" fill="none" stroke="#78868b" stroke-linecap="round" stroke-linejoin="round" stroke-miterlimit="10" stroke-width="2"/>
    </g>
    <g id="Group_543" data-name="Group 543" transform="translate(-75.742 -63.533)" opacity="0.25">
      <path id="Path_10416" data-name="Path 10416" d="M488.991,483.49H430l7.153-7.89h44.685Z" transform="translate(-320.829 -340.66)" fill="none" stroke="#78868b" stroke-linecap="round" stroke-linejoin="round" stroke-miterlimit="10" stroke-width="2"/>
      <path id="Path_10417" data-name="Path 10417" d="M485.894,490.651H433.1L430,486.3h58.991Z" transform="translate(-320.829 -343.47)" fill="none" stroke="#78868b" stroke-linecap="round" stroke-linejoin="round" stroke-miterlimit="10" stroke-width="2"/>
      <path id="Path_10418" data-name="Path 10418" d="M483.056,492.2l-1.475,6.341H443.975L442.5,492.2" transform="translate(-324.111 -345.02)" fill="none" stroke="#78868b" stroke-linecap="round" stroke-linejoin="round" stroke-miterlimit="10" stroke-width="2"/>
      <g id="Group_534" data-name="Group 534" transform="translate(123.772 115.399)">
        <path id="Path_10419" data-name="Path 10419" d="M454.077,457.654a4.277,4.277,0,1,1,4.277-4.277A4.28,4.28,0,0,1,454.077,457.654Z" transform="translate(-449.8 -449.1)" fill="none" stroke="#78868b" stroke-linecap="round" stroke-linejoin="round" stroke-miterlimit="10" stroke-width="2"/>
      </g>
      <path id="Path_10420" data-name="Path 10420" d="M449.9,470.8v3.613" transform="translate(-326.055 -339.4)" fill="none" stroke="#78868b" stroke-linecap="round" stroke-linejoin="round" stroke-miterlimit="10" stroke-width="2"/>
      <path id="Path_10421" data-name="Path 10421" d="M444,471.9v-2.581c0-4.719,3.834-7.816,8.554-7.816h0c4.719,0,8.554,3.1,8.554,7.816V471.9" transform="translate(-324.505 -336.957)" fill="none" stroke="#78868b" stroke-linecap="round" stroke-linejoin="round" stroke-miterlimit="10" stroke-width="2"/>
      <line id="Line_183" data-name="Line 183" y1="3.539" transform="translate(132.251 131.4)" fill="none" stroke="#78868b" stroke-linecap="round" stroke-linejoin="round" stroke-miterlimit="10" stroke-width="2"/>
      <g id="Group_535" data-name="Group 535" transform="translate(145.008 115.399)">
        <path id="Path_10422" data-name="Path 10422" d="M482.877,457.654a4.277,4.277,0,1,1,4.277-4.277A4.28,4.28,0,0,1,482.877,457.654Z" transform="translate(-478.6 -449.1)" fill="none" stroke="#78868b" stroke-linecap="round" stroke-linejoin="round" stroke-miterlimit="10" stroke-width="2"/>
      </g>
      <path id="Path_10423" data-name="Path 10423" d="M478.7,470.8v3.613" transform="translate(-333.618 -339.4)" fill="none" stroke="#78868b" stroke-linecap="round" stroke-linejoin="round" stroke-miterlimit="10" stroke-width="2"/>
      <path id="Path_10424" data-name="Path 10424" d="M472.8,471.9v-2.581c0-4.719,3.834-7.816,8.554-7.816h0c4.719,0,8.554,3.1,8.554,7.816V471.9" transform="translate(-332.069 -336.957)" fill="none" stroke="#78868b" stroke-linecap="round" stroke-linejoin="round" stroke-miterlimit="10" stroke-width="2"/>
      <line id="Line_184" data-name="Line 184" y1="3.539" transform="translate(153.488 131.4)" fill="none" stroke="#78868b" stroke-linecap="round" stroke-linejoin="round" stroke-miterlimit="10" stroke-width="2"/>
      <path id="Path_10425" data-name="Path 10425" d="M478.456,431.2H464.593a4.783,4.783,0,0,0-4.793,4.793h0a4.783,4.783,0,0,0,4.793,4.793h.516a.317.317,0,0,1,.295.295v2.876c0,.221.295.369.442.221l3.318-3.318a.271.271,0,0,1,.221-.074h9.144a4.783,4.783,0,0,0,4.793-4.793h0A4.895,4.895,0,0,0,478.456,431.2Z" transform="translate(-328.655 -329)" fill="none" stroke="#78868b" stroke-linecap="round" stroke-linejoin="round" stroke-miterlimit="10" stroke-width="2"/>
      <line id="Line_185" data-name="Line 185" x2="9.438" transform="translate(138.519 106.993)" fill="none" stroke="#78868b" stroke-linecap="round" stroke-linejoin="round" stroke-miterlimit="10" stroke-width="2" stroke-dasharray="0.447 5.363"/>
    </g>
    <g id="Icon_feather-bell" data-name="Icon feather-bell" transform="translate(1194.533 405)" opacity="0.25">
      <path id="Path_10484" data-name="Path 10484" d="M39.01,16.8a13.8,13.8,0,1,0-27.608,0c0,16.1-6.9,20.706-6.9,20.706H45.912s-6.9-4.6-6.9-20.706" fill="none" stroke="#78868b" stroke-linecap="round" stroke-linejoin="round" stroke-width="2"/>
      <path id="Path_10485" data-name="Path 10485" d="M23.365,31.5a4.6,4.6,0,0,1-7.96,0" transform="translate(5.821 15.213)" fill="none" stroke="#78868b" stroke-linecap="round" stroke-linejoin="round" stroke-width="2"/>
    </g>
    <g id="Calendar" transform="translate(35.754 288)" opacity="0.25">
      <path id="Path_10490" data-name="Path 10490" d="M48.444,7.067H44.222V5.378a3.378,3.378,0,0,0-6.756,0V7.067H30.711V5.378a3.378,3.378,0,0,0-6.756,0V7.067H17.2V5.378a3.378,3.378,0,1,0-6.756,0V7.067H6.222A4.222,4.222,0,0,0,2,11.289V45.067a4.222,4.222,0,0,0,4.222,4.222H29.867a.844.844,0,1,0,0-1.689H6.222a2.541,2.541,0,0,1-2.533-2.533V18.889H50.978V33.244a.844.844,0,0,0,1.689,0V11.289a4.222,4.222,0,0,0-4.222-4.222ZM39.156,5.378a1.689,1.689,0,1,1,3.378,0v5.067a1.689,1.689,0,1,1-3.378,0Zm-13.511,0a1.689,1.689,0,0,1,3.378,0v5.067a1.689,1.689,0,0,1-3.378,0Zm-13.511,0a1.689,1.689,0,0,1,3.378,0v5.067a1.689,1.689,0,0,1-3.378,0ZM50.978,17.2H3.689V11.289A2.541,2.541,0,0,1,6.222,8.756h4.222v1.689a3.378,3.378,0,1,0,6.756,0V8.756h6.756v1.689a3.378,3.378,0,0,0,6.756,0V8.756h6.756v1.689a3.378,3.378,0,0,0,6.756,0V8.756h4.222a2.541,2.541,0,0,1,2.533,2.533Z" transform="translate(0)" fill="#78868b"/>
      <path id="Path_10491" data-name="Path 10491" d="M28.756,28.689A1.689,1.689,0,0,0,27.067,27H23.689A1.689,1.689,0,0,0,22,28.689v2.533a1.689,1.689,0,0,0,1.689,1.689h3.378a1.689,1.689,0,0,0,1.689-1.689Zm-5.067,2.533V28.689h3.378v2.533Z" transform="translate(-3.111 -3.889)" fill="#78868b"/>
      <path id="Path_10492" data-name="Path 10492" d="M16.756,28.689A1.689,1.689,0,0,0,15.067,27H11.689A1.689,1.689,0,0,0,10,28.689v2.533a1.689,1.689,0,0,0,1.689,1.689h3.378a1.689,1.689,0,0,0,1.689-1.689Zm-5.067,2.533V28.689h3.378v2.533Z" transform="translate(-1.244 -3.889)" fill="#78868b"/>
      <path id="Path_10493" data-name="Path 10493" d="M51.067,32.911a1.689,1.689,0,0,0,1.689-1.689V28.689A1.689,1.689,0,0,0,51.067,27H47.689A1.689,1.689,0,0,0,46,28.689v2.533a1.689,1.689,0,0,0,1.689,1.689Zm-3.378-4.222h3.378v2.533H47.689Z" transform="translate(-6.844 -3.889)" fill="#78868b"/>
      <path id="Path_10494" data-name="Path 10494" d="M28.756,37.689A1.689,1.689,0,0,0,27.067,36H23.689A1.689,1.689,0,0,0,22,37.689v2.533a1.689,1.689,0,0,0,1.689,1.689h3.378a1.689,1.689,0,0,0,1.689-1.689Zm-5.067,2.533V37.689h3.378v2.533Z" transform="translate(-3.111 -5.289)" fill="#78868b"/>
      <path id="Path_10495" data-name="Path 10495" d="M16.756,37.689A1.689,1.689,0,0,0,15.067,36H11.689A1.689,1.689,0,0,0,10,37.689v2.533a1.689,1.689,0,0,0,1.689,1.689h3.378a1.689,1.689,0,0,0,1.689-1.689Zm-5.067,2.533V37.689h3.378v2.533Z" transform="translate(-1.244 -5.289)" fill="#78868b"/>
      <path id="Path_10496" data-name="Path 10496" d="M27.067,45H23.689A1.689,1.689,0,0,0,22,46.689v2.533a1.689,1.689,0,0,0,1.689,1.689h3.378a1.689,1.689,0,0,0,1.689-1.689V46.689A1.689,1.689,0,0,0,27.067,45Zm-3.378,4.222V46.689h3.378v2.533Z" transform="translate(-3.111 -6.689)" fill="#78868b"/>
      <path id="Path_10497" data-name="Path 10497" d="M35.689,32.911h3.378a1.689,1.689,0,0,0,1.689-1.689V28.689A1.689,1.689,0,0,0,39.067,27H35.689A1.689,1.689,0,0,0,34,28.689v2.533A1.689,1.689,0,0,0,35.689,32.911Zm0-4.222h3.378v2.533H35.689Z" transform="translate(-4.978 -3.889)" fill="#78868b"/>
      <path id="Path_10498" data-name="Path 10498" d="M34,40.222a1.689,1.689,0,0,0,1.689,1.689.844.844,0,1,0,0-1.689V37.689h3.378a.844.844,0,0,0,0-1.689H35.689A1.689,1.689,0,0,0,34,37.689Z" transform="translate(-4.978 -5.289)" fill="#78868b"/>
      <path id="Path_10499" data-name="Path 10499" d="M15.067,45H11.689A1.689,1.689,0,0,0,10,46.689v2.533a1.689,1.689,0,0,0,1.689,1.689h3.378a1.689,1.689,0,0,0,1.689-1.689V46.689A1.689,1.689,0,0,0,15.067,45Zm-3.378,4.222V46.689h3.378v2.533Z" transform="translate(-1.244 -6.689)" fill="#78868b"/>
      <path id="Path_10500" data-name="Path 10500" d="M46.978,36A10.978,10.978,0,1,0,57.956,46.978,10.978,10.978,0,0,0,46.978,36Zm0,20.267a9.289,9.289,0,1,1,9.289-9.289,9.289,9.289,0,0,1-9.289,9.289Z" transform="translate(-5.289 -5.289)" fill="#78868b"/>
      <path id="Path_10501" data-name="Path 10501" d="M52.753,44.762l-6.568,6.568L43.2,48.345a.844.844,0,1,0-1.194,1.194l3.582,3.583a.844.844,0,0,0,1.194,0l7.165-7.165a.844.844,0,1,0-1.194-1.194Z" transform="translate(-6.185 -6.613)" fill="#78868b"/>
    </g>
    <g id="signature" transform="translate(524 571.124)" opacity="0.25">
      <g id="Group_547" data-name="Group 547" transform="translate(0 43.219)">
        <g id="Group_546" data-name="Group 546">
          <path id="Path_10502" data-name="Path 10502" d="M57.853,70.72l15.529-3.278a1.226,1.226,0,0,0,.914-.826l2.666-8.334,6.412-6.412a1.225,1.225,0,0,0,0-1.733l-6.56-6.56a1.225,1.225,0,0,0-1.733,0l-6.35,6.35-8.427,2.7a1.225,1.225,0,0,0-.826.914L56.2,69.067A1.257,1.257,0,0,0,57.853,70.72ZM75.947,46.177l4.828,4.828-1.547,1.547L74.4,47.725Zm-3.28,3.28,4.828,4.828-1.547,1.547-4.828-4.827ZM61.728,54.742l7.32-2.342,5.472,5.472-2.342,7.32-11.09,2.341,6.505-6.505a1.225,1.225,0,0,0-1.733-1.733L59.4,65.751Z" transform="translate(-46.925 -43.219)" fill="#78868b"/>
          <path id="Path_10503" data-name="Path 10503" d="M56.774,242.081H24.062a2.105,2.105,0,0,1-1.681-3.377,4.559,4.559,0,0,0-3.636-7.305H1.225a1.225,1.225,0,1,0,0,2.451H18.745a2.105,2.105,0,0,1,1.681,3.377,4.559,4.559,0,0,0,3.636,7.305H56.775a1.225,1.225,0,1,0,0-2.451Z" transform="translate(0 -200.654)" fill="#78868b"/>
        </g>
      </g>
    </g>
    <g id="expenses" transform="translate(754 635.289)" opacity="0.25">
      <path id="Path_10504" data-name="Path 10504" d="M189.467,309.054a.972.972,0,0,0-.139-1.368,11.046,11.046,0,1,0,4.071,8.565,10.952,10.952,0,0,0-1.046-4.7.972.972,0,1,0-1.759.828,9.1,9.1,0,1,1-8.241-5.232,9.118,9.118,0,0,1,5.746,2.043A.972.972,0,0,0,189.467,309.054Z" transform="translate(-149.104 -263.002)" fill="#78868b"/>
      <path id="Path_10505" data-name="Path 10505" d="M153.359,271.9a15.245,15.245,0,0,0-11,4.642.972.972,0,1,0,1.392,1.357,13.377,13.377,0,1,1-2.433,3.441.972.972,0,0,0-1.744-.859A15.214,15.214,0,0,0,138,287.259,15.363,15.363,0,1,0,153.359,271.9Z" transform="translate(-120.11 -234.009)" fill="#78868b"/>
      <path id="Path_10506" data-name="Path 10506" d="M234.007,350.839a.972.972,0,0,0,.972-.972v-.684a3.466,3.466,0,0,0,2.332-2.783,3.125,3.125,0,0,0-2.07-3.569,7.135,7.135,0,0,1-2.09-.908,1.057,1.057,0,0,1-.255-.883,1,1,0,0,1,.6-.7,1.809,1.809,0,0,1,1.616.29.972.972,0,0,0,1.235-1.5,4.072,4.072,0,0,0-1.368-.687v-.5a.972.972,0,0,0-1.944,0v.491a2.958,2.958,0,0,0-.4.16,2.927,2.927,0,0,0-1.649,2.072,3,3,0,0,0,.709,2.547,4.964,4.964,0,0,0,2.33,1.258,1.751,1.751,0,0,1,1.367,1.607,1.515,1.515,0,0,1-1.449,1.326,2.679,2.679,0,0,1-1.787-.68.972.972,0,0,0-1.063,1.628,5.3,5.3,0,0,0,1.941.917v.6A.972.972,0,0,0,234.007,350.839Z" transform="translate(-200.758 -290.65)" fill="#78868b"/>
      <path id="Path_10507" data-name="Path 10507" d="M19.076,71.8a9.538,9.538,0,1,0-9.538,9.538A9.549,9.549,0,0,0,19.076,71.8ZM9.538,79.39A7.594,7.594,0,1,1,17.132,71.8,7.6,7.6,0,0,1,9.538,79.39Z" transform="translate(0 -51.543)" fill="#78868b"/>
      <path id="Path_10508" data-name="Path 10508" d="M374.8,61.27a.972.972,0,0,0-.089,1.942,7.59,7.59,0,1,1-3.9.869.972.972,0,0,0-.909-1.718,9.541,9.541,0,1,0,4.9-1.093Z" transform="translate(-317.534 -50.681)" fill="#78868b"/>
      <path id="Path_10509" data-name="Path 10509" d="M192.476,22.116a9.538,9.538,0,1,0-9.538-9.538A9.549,9.549,0,0,0,192.476,22.116Zm0-17.132a7.594,7.594,0,1,1-7.594,7.594,7.6,7.6,0,0,1,7.594-7.594Z" transform="translate(-159.227)" fill="#78868b"/>
      <path id="Path_10510" data-name="Path 10510" d="M298.988,217.6h0Z" transform="translate(-260.236 -186.75)" fill="#78868b"/>
      <path id="Path_10511" data-name="Path 10511" d="M216.592,179.717H219a1.622,1.622,0,0,0,1.62-1.62v-1.2H222.2a1.361,1.361,0,0,0,1.1-2.166l-4.2-5.721a1.62,1.62,0,0,0-2.613,0l-4.2,5.721a1.361,1.361,0,0,0,1.1,2.166h1.584v1.2A1.622,1.622,0,0,0,216.592,179.717Zm5.138-3.831h0Zm-7.191-.928,3.255-4.437,3.255,4.437h-1.4a.972.972,0,0,0-.972.972v1.843h-1.756v-1.843a.972.972,0,0,0-.972-.972Z" transform="translate(-184.546 -143.886)" fill="#78868b"/>
      <path id="Path_10512" data-name="Path 10512" d="M323.6,206.465a1.626,1.626,0,0,0-1.45-.207l-6.72,2.279a1.361,1.361,0,0,0-.343,2.4l1.3.908-.686.979a1.622,1.622,0,0,0,.4,2.256l1.97,1.379a1.621,1.621,0,0,0,2.256-.4l.686-.979,1.3.908a1.361,1.361,0,0,0,2.141-1.145h0l-.156-7.094A1.625,1.625,0,0,0,323.6,206.465Zm-2.273,6.472a.972.972,0,0,0-1.354.239l-1.057,1.51-1.439-1.007,1.057-1.51a.972.972,0,0,0-.239-1.354l-1.151-.806,5.211-1.768.121,5.5Z" transform="translate(-273.74 -176.805)" fill="#78868b"/>
      <path id="Path_10513" data-name="Path 10513" d="M125.237,215.086l.686.979a1.622,1.622,0,0,0,2.256.4l1.97-1.379a1.622,1.622,0,0,0,.4-2.256l-.686-.979,1.3-.908a1.361,1.361,0,0,0-.343-2.4h0l-6.72-2.279a1.62,1.62,0,0,0-2.14,1.5l-.156,7.094a1.361,1.361,0,0,0,2.141,1.145Zm-1.348-6.846,5.211,1.768-1.151.806a.972.972,0,0,0-.239,1.354l1.057,1.51-1.439,1.007-1.057-1.51a.972.972,0,0,0-1.354-.239l-1.151.806Z" transform="translate(-106.012 -176.804)" fill="#78868b"/>
      <path id="Path_10514" data-name="Path 10514" d="M38.775,95.848a5.184,5.184,0,1,0,5.184,5.184A5.19,5.19,0,0,0,38.775,95.848Zm0,8.425a3.24,3.24,0,1,1,3.24-3.24A3.244,3.244,0,0,1,38.775,104.273Z" transform="translate(-29.237 -80.779)" fill="#78868b"/>
      <path id="Path_10515" data-name="Path 10515" d="M217.967,41.917a.972.972,0,0,0,1.148-.757,3.241,3.241,0,1,1,3.174,3.9,3.2,3.2,0,0,1-2.036-.719.972.972,0,1,0-1.223,1.512,5.184,5.184,0,1,0-1.821-5.078A.972.972,0,0,0,217.967,41.917Z" transform="translate(-189.04 -29.237)" fill="#78868b"/>
      <path id="Path_10516" data-name="Path 10516" d="M398.409,99.974a5.184,5.184,0,1,0,5.184-5.184A5.19,5.19,0,0,0,398.409,99.974Zm5.184-3.24a3.24,3.24,0,1,1-3.24,3.24A3.244,3.244,0,0,1,403.593,96.734Z" transform="translate(-346.771 -79.858)" fill="#78868b"/>
    </g>
    <g id="management" transform="translate(1186.313 564.001)" opacity="0.25">
      <path id="Path_10517" data-name="Path 10517" d="M191.9,142.618a4.756,4.756,0,1,0-4.757-4.756A4.756,4.756,0,0,0,191.9,142.618Zm0-7.61a2.853,2.853,0,1,1-2.854,2.853,2.853,2.853,0,0,1,2.854-2.853Zm0,0" transform="translate(-164.765 -117.274)" fill="#78868b"/>
      <path id="Path_10518" data-name="Path 10518" d="M170.9,216a.941.941,0,0,0-.767.376,3.63,3.63,0,0,1-5.826,0,.94.94,0,0,0-.767-.378,4.389,4.389,0,0,0-4.408,4.352v5.207a.945.945,0,0,0,.985.909h14.206a.946.946,0,0,0,.985-.909v-5.207A4.389,4.389,0,0,0,170.9,216Zm2.505,8.564h-12.37v-4.212a2.491,2.491,0,0,1,2.066-2.436,5.537,5.537,0,0,0,7.382.755,5.644,5.644,0,0,0,.852-.755,2.494,2.494,0,0,1,2.07,2.436Zm0,0" transform="translate(-140.088 -190.308)" fill="#78868b"/>
      <path id="Path_10519" data-name="Path 10519" d="M112.227,97.582a15.512,15.512,0,1,0,15.512,15.512A15.512,15.512,0,0,0,112.227,97.582Zm0,29.121a13.609,13.609,0,1,1,13.609-13.609A13.609,13.609,0,0,1,112.227,126.7Zm0,0" transform="translate(-85.095 -85.976)" fill="#78868b"/>
      <path id="Path_10520" data-name="Path 10520" d="M53.278,22.33l-5.013-.483a21.926,21.926,0,0,0-2.542-6.039l3.2-3.857a.951.951,0,0,0-.059-1.28L43.441,5.253a.953.953,0,0,0-1.28-.059L38.306,8.385a21.329,21.329,0,0,0-6.041-2.545l-.483-5A.938.938,0,0,0,30.834,0h-7.4a.938.938,0,0,0-.947.845l-.483,5A21.344,21.344,0,0,0,15.959,8.39L12.1,5.2a.951.951,0,0,0-1.28.059L5.405,10.672a.951.951,0,0,0-.06,1.28L8.54,15.808A21.949,21.949,0,0,0,6,21.847L.987,22.33a.946.946,0,0,0-.854.947v7.682a.946.946,0,0,0,.854.947L6,32.389A21.338,21.338,0,0,0,8.539,38.43L5.346,42.285a.953.953,0,0,0,.059,1.28l5.418,5.418a.952.952,0,0,0,1.28.059l3.857-3.194A21.93,21.93,0,0,0,22,48.392l.484,5.016a.951.951,0,0,0,.947.86h7.4a.952.952,0,0,0,.947-.86l.483-5.016A21.946,21.946,0,0,0,38.3,45.848l3.857,3.194a.951.951,0,0,0,1.28-.059l5.418-5.418a.951.951,0,0,0,.059-1.28L45.725,38.43a21.351,21.351,0,0,0,2.546-6.042l5.006-.483a.947.947,0,0,0,.855-.946V23.278a.947.947,0,0,0-.854-.947Zm-1.049,7.764L47.4,30.56a.948.948,0,0,0-.835.746,19.485,19.485,0,0,1-2.811,6.671.951.951,0,0,0,.061,1.132L46.9,42.832l-4.193,4.193-3.722-3.083a.952.952,0,0,0-1.128-.063,20.076,20.076,0,0,1-6.68,2.817.951.951,0,0,0-.741.838l-.466,4.832H24.294l-.466-4.832a.951.951,0,0,0-.741-.838,20.076,20.076,0,0,1-6.68-2.817.952.952,0,0,0-1.128.063l-3.722,3.082L7.364,42.831l3.082-3.722a.951.951,0,0,0,.061-1.132,19.476,19.476,0,0,1-2.813-6.671.944.944,0,0,0-.833-.746l-4.826-.466V24.142l4.826-.466a.948.948,0,0,0,.835-.741,20.08,20.08,0,0,1,2.815-6.681.951.951,0,0,0-.064-1.128L7.364,11.4l4.194-4.193,3.722,3.083a.952.952,0,0,0,1.132.06,19.477,19.477,0,0,1,6.671-2.813.934.934,0,0,0,.746-.823L24.295,1.9H29.97l.466,4.816a.942.942,0,0,0,.746.831,19.468,19.468,0,0,1,6.671,2.809.951.951,0,0,0,1.132-.062l3.722-3.084L46.9,11.406l-3.082,3.722a.952.952,0,0,0-.063,1.128,20.076,20.076,0,0,1,2.816,6.68.945.945,0,0,0,.832.742l4.826.465Zm0,0" transform="translate(0 0)" fill="#78868b"/>
    </g>
    <g id="salary_1_" data-name="salary (1)" transform="translate(95.811 153.861)" opacity="0.25">
      <path id="Path_10521" data-name="Path 10521" d="M49.459,336.886h-.135a3.7,3.7,0,0,0-1.542.338L37,342.2H32.98a3.981,3.981,0,0,0-3.31-6.2H17.713a.883.883,0,0,0-.626.259L13.8,339.543H8.857v-.886a.886.886,0,0,0-.886-.886H.886a.886.886,0,0,0-.886.886v12.4a.886.886,0,0,0,.886.886H7.971a.886.886,0,0,0,.886-.886H38.083a.886.886,0,0,0,.434-.113l12.746-7.169a3.68,3.68,0,0,0-1.8-6.888ZM7.085,350.17H1.771V339.543H7.085Zm43.309-7.941-12.543,7.056H8.857v-7.971H14.17a.883.883,0,0,0,.626-.259l3.283-3.283h11.59a2.214,2.214,0,1,1,0,4.428H22.141v1.771H37.2a.877.877,0,0,0,.371-.081l10.957-5.057a1.9,1.9,0,0,1,.8-.176h.135a1.908,1.908,0,0,1,.935,3.572Zm0,0" transform="translate(0 -298.803)" fill="#78868b"/>
      <path id="Path_10522" data-name="Path 10522" d="M97.713,0a17.713,17.713,0,1,0,17.713,17.713A17.733,17.733,0,0,0,97.713,0Zm0,33.654a15.942,15.942,0,1,1,15.942-15.942A15.96,15.96,0,0,1,97.713,33.654Zm0,0" transform="translate(-71.143)" fill="#78868b"/>
      <path id="Path_10523" data-name="Path 10523" d="M137.506,37.666l-1.415,1.065a12.288,12.288,0,0,1,2.479,7.439,12.39,12.39,0,1,1-6.613-10.97l.828-1.566a14.173,14.173,0,1,0,7.556,12.536,14.048,14.048,0,0,0-2.835-8.5Zm0,0" transform="translate(-99.601 -28.458)" fill="#78868b"/>
      <path id="Path_10524" data-name="Path 10524" d="M309.393,58.546a14.206,14.206,0,0,0-1.13-.945L307.2,59.017a12.4,12.4,0,0,1,.989.827Zm0,0" transform="translate(-273.19 -51.225)" fill="#78868b"/>
      <path id="Path_10525" data-name="Path 10525" d="M196.428,75.543H198.2a2.66,2.66,0,0,1,2.657,2.657h1.771a4.433,4.433,0,0,0-4.428-4.428V72h-1.771v1.771a4.428,4.428,0,1,0,0,8.856H198.2a2.657,2.657,0,1,1,0,5.314h-1.771a2.66,2.66,0,0,1-2.657-2.657H192a4.433,4.433,0,0,0,4.428,4.428v1.771H198.2V89.713a4.428,4.428,0,0,0,0-8.856h-1.771a2.657,2.657,0,1,1,0-5.314Zm0,0" transform="translate(-170.744 -64.029)" fill="#78868b"/>
      <path id="Path_10526" data-name="Path 10526" d="M312,152h1.771v1.771H312Zm0,0" transform="translate(-277.46 -135.173)" fill="#78868b"/>
      <path id="Path_10527" data-name="Path 10527" d="M152,152h1.771v1.771H152Zm0,0" transform="translate(-135.173 -135.173)" fill="#78868b"/>
      <path id="Path_10528" data-name="Path 10528" d="M360,280h1.771v1.771H360Zm0,0" transform="translate(-320.146 -249.003)" fill="#78868b"/>
      <path id="Path_10529" data-name="Path 10529" d="M360,312h1.771v5.314H360Zm0,0" transform="translate(-320.146 -277.46)" fill="#78868b"/>
      <path id="Path_10530" data-name="Path 10530" d="M320,328h1.771v5.314H320Zm0,0" transform="translate(-284.574 -291.689)" fill="#78868b"/>
    </g>
    <g id="timer" transform="translate(1095.75 470.75)" opacity="0.25">
      <g id="Group_548" data-name="Group 548" transform="translate(8.75)">
        <path id="Path_10531" data-name="Path 10531" d="M14.937,21.875A10.937,10.937,0,1,1,25.875,10.937,10.95,10.95,0,0,1,14.937,21.875Zm0-19.687a8.75,8.75,0,1,0,8.75,8.75A8.759,8.759,0,0,0,14.937,2.187Z" transform="translate(-4)" fill="#78868b"/>
      </g>
      <g id="Group_549" data-name="Group 549" transform="translate(0 26.25)">
        <path id="Path_10532" data-name="Path 10532" d="M19.862,31.687H1.094A1.094,1.094,0,0,1,0,30.594v-8.75A9.856,9.856,0,0,1,9.844,12h12.6a1.094,1.094,0,1,1,0,2.187H9.844a7.665,7.665,0,0,0-7.656,7.656V29.5H19.862a1.094,1.094,0,0,1,0,2.188Z" transform="translate(0 -12)" fill="#78868b"/>
      </g>
      <g id="Group_550" data-name="Group 550" transform="translate(24.063 24.063)">
        <path id="Path_10533" data-name="Path 10533" d="M25.219,39.437A14.219,14.219,0,1,1,39.437,25.219,14.235,14.235,0,0,1,25.219,39.437Zm0-26.25A12.031,12.031,0,1,0,37.25,25.219,12.047,12.047,0,0,0,25.219,13.187Z" transform="translate(-11 -11)" fill="#78868b"/>
      </g>
      <g id="Group_551" data-name="Group 551" transform="translate(37.188 30.625)">
        <path id="Path_10534" data-name="Path 10534" d="M22.469,27.125a1.1,1.1,0,0,1-.774-.319l-4.375-4.375A1.1,1.1,0,0,1,17,21.656V15.094a1.094,1.094,0,0,1,2.188,0V21.2l4.056,4.056a1.093,1.093,0,0,1-.774,1.866Z" transform="translate(-17 -14)" fill="#78868b"/>
      </g>
    </g>
  </g>
</svg>
